<svg width="1200" height="630" viewBox="0 0 1200 630" fill="none" xmlns="http://www.w3.org/2000/svg">
  <defs>
    <linearGradient id="brand" x1="170" y1="80" x2="1000" y2="590" gradientUnits="userSpaceOnUse">
      <stop stop-color="#FF7A33"/>
      <stop offset="1" stop-color="#FF5A1F"/>
    </linearGradient>
    <radialGradient id="glowLeft" cx="0" cy="0" r="1" gradientUnits="userSpaceOnUse" gradientTransform="translate(250 170) rotate(41.5) scale(315 250)">
      <stop stop-color="#FF6A2A" stop-opacity="0.28"/>
      <stop offset="1" stop-color="#FF6A2A" stop-opacity="0"/>
    </radialGradient>
    <radialGradient id="glowRight" cx="0" cy="0" r="1" gradientUnits="userSpaceOnUse" gradientTransform="translate(920 480) rotate(180) scale(340 260)">
      <stop stop-color="#FF7A33" stop-opacity="0.22"/>
      <stop offset="1" stop-color="#FF7A33" stop-opacity="0"/>
    </radialGradient>
    <linearGradient id="text" x1="178" y1="126" x2="858" y2="490" gradientUnits="userSpaceOnUse">
      <stop stop-color="#FFF4EC"/>
      <stop offset="1" stop-color="#FFFFFF"/>
    </linearGradient>
  </defs>

  <rect width="1200" height="630" fill="#030303"/>
  <rect x="28" y="28" width="1144" height="574" rx="36" stroke="url(#brand)" stroke-opacity="0.24" stroke-width="2"/>
  <circle cx="250" cy="170" r="250" fill="url(#glowLeft)"/>
  <circle cx="920" cy="480" r="250" fill="url(#glowRight)"/>

  <rect x="120" y="120" width="124" height="124" rx="30" fill="#050505" stroke="url(#brand)" stroke-width="8"/>
  <path d="M152 208V157H168L182 182L196 157H212V208H194V186L185 201H179L170 186V208H152Z" fill="url(#text)"/>

  <text x="120" y="336" fill="url(#text)" font-family="Montserrat, Arial, sans-serif" font-size="76" font-weight="800">
    Máquina de Vendas
  </text>
  <text x="120" y="404" fill="#F2C8B3" font-family="Montserrat, Arial, sans-serif" font-size="32" font-weight="500">
    Sistema de previsibilidade para o seu time comercial
  </text>
  <text x="120" y="472" fill="#FFFFFF" font-family="Montserrat, Arial, sans-serif" font-size="52" font-weight="700">
    Saiba no dia 15 como vai fechar o mês.
  </text>
  <text x="120" y="532" fill="#B6B6B6" font-family="Montserrat, Arial, sans-serif" font-size="28" font-weight="500">
    maquinadevendas.app
  </text>
</svg>
